<mxfile host="app.diagrams.net" agent="Mozilla/5.0 (Windows NT 10.0; Win64; x64) AppleWebKit/537.36 (KHTML, like Gecko) Chrome/137.0.0.0 Safari/537.36 Edg/137.0.0.0" version="27.1.4">
  <diagram name="Page-1" id="HelCZqLpGhFcyLT2CP-K">
    <mxGraphModel dx="1317" dy="805" grid="1" gridSize="10" guides="1" tooltips="1" connect="1" arrows="1" fold="1" page="1" pageScale="1" pageWidth="850" pageHeight="1100" math="0" shadow="0">
      <root>
        <mxCell id="0" />
        <mxCell id="1" parent="0" />
        <mxCell id="Hp5vJt8NfIsiyrUl7PVB-6" value="sensor data" style="edgeStyle=orthogonalEdgeStyle;rounded=0;orthogonalLoop=1;jettySize=auto;html=1;exitX=1;exitY=0.5;exitDx=0;exitDy=0;entryX=0;entryY=0.5;entryDx=0;entryDy=0;entryPerimeter=0;" edge="1" parent="1" source="Hp5vJt8NfIsiyrUl7PVB-1" target="Hp5vJt8NfIsiyrUl7PVB-30">
          <mxGeometry relative="1" as="geometry">
            <mxPoint x="310" y="291.5" as="targetPoint" />
            <mxPoint as="offset" />
          </mxGeometry>
        </mxCell>
        <mxCell id="Hp5vJt8NfIsiyrUl7PVB-1" value="AWS IOT CORE" style="rounded=0;whiteSpace=wrap;html=1;" vertex="1" parent="1">
          <mxGeometry x="180" y="257.5" width="120" height="60" as="geometry" />
        </mxCell>
        <mxCell id="Hp5vJt8NfIsiyrUl7PVB-5" value="sensor data" style="edgeStyle=orthogonalEdgeStyle;rounded=0;orthogonalLoop=1;jettySize=auto;html=1;exitX=1;exitY=0.5;exitDx=0;exitDy=0;exitPerimeter=0;" edge="1" parent="1" source="Hp5vJt8NfIsiyrUl7PVB-3" target="Hp5vJt8NfIsiyrUl7PVB-1">
          <mxGeometry relative="1" as="geometry" />
        </mxCell>
        <mxCell id="Hp5vJt8NfIsiyrUl7PVB-3" value="device" style="outlineConnect=0;dashed=0;verticalLabelPosition=bottom;verticalAlign=top;align=center;html=1;shape=mxgraph.aws3.device_farm;fillColor=#AD688B;gradientColor=none;" vertex="1" parent="1">
          <mxGeometry x="10" y="241.5" width="76.5" height="93" as="geometry" />
        </mxCell>
        <mxCell id="Hp5vJt8NfIsiyrUl7PVB-8" value="alarm notification" style="edgeStyle=orthogonalEdgeStyle;rounded=0;orthogonalLoop=1;jettySize=auto;html=1;exitX=1;exitY=0.5;exitDx=0;exitDy=0;exitPerimeter=0;entryX=0;entryY=0.5;entryDx=0;entryDy=0;entryPerimeter=0;" edge="1" parent="1" source="Hp5vJt8NfIsiyrUl7PVB-4" target="Hp5vJt8NfIsiyrUl7PVB-22">
          <mxGeometry relative="1" as="geometry" />
        </mxCell>
        <mxCell id="Hp5vJt8NfIsiyrUl7PVB-4" value="Lambda&lt;br&gt;alarm-triggering-lambda" style="sketch=0;points=[[0,0,0],[0.25,0,0],[0.5,0,0],[0.75,0,0],[1,0,0],[0,1,0],[0.25,1,0],[0.5,1,0],[0.75,1,0],[1,1,0],[0,0.25,0],[0,0.5,0],[0,0.75,0],[1,0.25,0],[1,0.5,0],[1,0.75,0]];outlineConnect=0;fontColor=#232F3E;fillColor=#ED7100;strokeColor=#ffffff;dashed=0;verticalLabelPosition=bottom;verticalAlign=top;align=center;html=1;fontSize=12;fontStyle=0;aspect=fixed;shape=mxgraph.aws4.resourceIcon;resIcon=mxgraph.aws4.lambda;" vertex="1" parent="1">
          <mxGeometry x="670" y="250.5" width="78" height="78" as="geometry" />
        </mxCell>
        <mxCell id="Hp5vJt8NfIsiyrUl7PVB-7" value="SNS" style="sketch=0;points=[[0,0,0],[0.25,0,0],[0.5,0,0],[0.75,0,0],[1,0,0],[0,1,0],[0.25,1,0],[0.5,1,0],[0.75,1,0],[1,1,0],[0,0.25,0],[0,0.5,0],[0,0.75,0],[1,0.25,0],[1,0.5,0],[1,0.75,0]];outlineConnect=0;fontColor=#232F3E;fillColor=#E7157B;strokeColor=#ffffff;dashed=0;verticalLabelPosition=bottom;verticalAlign=top;align=center;html=1;fontSize=12;fontStyle=0;aspect=fixed;shape=mxgraph.aws4.resourceIcon;resIcon=mxgraph.aws4.sns;" vertex="1" parent="1">
          <mxGeometry x="1100" y="252" width="78" height="78" as="geometry" />
        </mxCell>
        <mxCell id="Hp5vJt8NfIsiyrUl7PVB-35" style="edgeStyle=orthogonalEdgeStyle;rounded=0;orthogonalLoop=1;jettySize=auto;html=1;exitX=1;exitY=0.5;exitDx=0;exitDy=0;exitPerimeter=0;" edge="1" parent="1" source="Hp5vJt8NfIsiyrUl7PVB-14" target="Hp5vJt8NfIsiyrUl7PVB-34">
          <mxGeometry relative="1" as="geometry" />
        </mxCell>
        <mxCell id="Hp5vJt8NfIsiyrUl7PVB-14" value="&lt;div&gt;S3&lt;/div&gt;reports storage" style="sketch=0;points=[[0,0,0],[0.25,0,0],[0.5,0,0],[0.75,0,0],[1,0,0],[0,1,0],[0.25,1,0],[0.5,1,0],[0.75,1,0],[1,1,0],[0,0.25,0],[0,0.5,0],[0,0.75,0],[1,0.25,0],[1,0.5,0],[1,0.75,0]];outlineConnect=0;fontColor=#232F3E;fillColor=#7AA116;strokeColor=#ffffff;dashed=0;verticalLabelPosition=bottom;verticalAlign=top;align=center;html=1;fontSize=12;fontStyle=0;aspect=fixed;shape=mxgraph.aws4.resourceIcon;resIcon=mxgraph.aws4.s3;" vertex="1" parent="1">
          <mxGeometry x="1620" y="257.5" width="78" height="78" as="geometry" />
        </mxCell>
        <mxCell id="Hp5vJt8NfIsiyrUl7PVB-16" value="Upload report (docx)" style="edgeStyle=orthogonalEdgeStyle;rounded=0;orthogonalLoop=1;jettySize=auto;html=1;exitX=0.5;exitY=0.5;exitDx=0;exitDy=0;exitPerimeter=0;" edge="1" parent="1" source="Hp5vJt8NfIsiyrUl7PVB-15" target="Hp5vJt8NfIsiyrUl7PVB-14">
          <mxGeometry relative="1" as="geometry" />
        </mxCell>
        <mxCell id="Hp5vJt8NfIsiyrUl7PVB-15" value="Technician" style="shape=umlActor;verticalLabelPosition=bottom;verticalAlign=top;html=1;outlineConnect=0;" vertex="1" parent="1">
          <mxGeometry x="1430" y="266.5" width="30" height="60" as="geometry" />
        </mxCell>
        <mxCell id="Hp5vJt8NfIsiyrUl7PVB-17" value="alarm notification" style="edgeStyle=orthogonalEdgeStyle;rounded=0;orthogonalLoop=1;jettySize=auto;html=1;exitX=1;exitY=0.5;exitDx=0;exitDy=0;exitPerimeter=0;entryX=0;entryY=0.5;entryDx=0;entryDy=0;entryPerimeter=0;" edge="1" parent="1" source="Hp5vJt8NfIsiyrUl7PVB-7" target="Hp5vJt8NfIsiyrUl7PVB-36">
          <mxGeometry relative="1" as="geometry" />
        </mxCell>
        <mxCell id="Hp5vJt8NfIsiyrUl7PVB-21" style="edgeStyle=orthogonalEdgeStyle;rounded=0;orthogonalLoop=1;jettySize=auto;html=1;entryX=0;entryY=0.5;entryDx=0;entryDy=0;entryPerimeter=0;exitX=1;exitY=0.5;exitDx=0;exitDy=0;exitPerimeter=0;" edge="1" parent="1" source="Hp5vJt8NfIsiyrUl7PVB-30" target="Hp5vJt8NfIsiyrUl7PVB-4">
          <mxGeometry relative="1" as="geometry">
            <mxPoint x="598" y="292.53846153846143" as="sourcePoint" />
          </mxGeometry>
        </mxCell>
        <mxCell id="Hp5vJt8NfIsiyrUl7PVB-22" value="DyanmoDB" style="outlineConnect=0;dashed=0;verticalLabelPosition=bottom;verticalAlign=top;align=center;html=1;shape=mxgraph.aws3.dynamo_db;fillColor=#2E73B8;gradientColor=none;" vertex="1" parent="1">
          <mxGeometry x="910" y="250.5" width="72" height="81" as="geometry" />
        </mxCell>
        <mxCell id="Hp5vJt8NfIsiyrUl7PVB-24" style="edgeStyle=orthogonalEdgeStyle;rounded=0;orthogonalLoop=1;jettySize=auto;html=1;exitX=1;exitY=0.5;exitDx=0;exitDy=0;exitPerimeter=0;entryX=0;entryY=0.5;entryDx=0;entryDy=0;entryPerimeter=0;" edge="1" parent="1" source="Hp5vJt8NfIsiyrUl7PVB-22" target="Hp5vJt8NfIsiyrUl7PVB-7">
          <mxGeometry relative="1" as="geometry">
            <mxPoint x="1040" y="292" as="targetPoint" />
          </mxGeometry>
        </mxCell>
        <mxCell id="Hp5vJt8NfIsiyrUl7PVB-26" value="GO FIX THE DEVICE" style="edgeStyle=orthogonalEdgeStyle;rounded=0;orthogonalLoop=1;jettySize=auto;html=1;exitX=0.5;exitY=0;exitDx=0;exitDy=0;exitPerimeter=0;entryX=0.5;entryY=0;entryDx=0;entryDy=0;entryPerimeter=0;" edge="1" parent="1" source="Hp5vJt8NfIsiyrUl7PVB-15" target="Hp5vJt8NfIsiyrUl7PVB-3">
          <mxGeometry relative="1" as="geometry">
            <Array as="points">
              <mxPoint x="1445" y="140" />
              <mxPoint x="40" y="140" />
              <mxPoint x="40" y="245" />
              <mxPoint x="48" y="245" />
            </Array>
          </mxGeometry>
        </mxCell>
        <mxCell id="Hp5vJt8NfIsiyrUl7PVB-30" value="SQS" style="sketch=0;points=[[0,0,0],[0.25,0,0],[0.5,0,0],[0.75,0,0],[1,0,0],[0,1,0],[0.25,1,0],[0.5,1,0],[0.75,1,0],[1,1,0],[0,0.25,0],[0,0.5,0],[0,0.75,0],[1,0.25,0],[1,0.5,0],[1,0.75,0]];outlineConnect=0;fontColor=#232F3E;fillColor=#E7157B;strokeColor=#ffffff;dashed=0;verticalLabelPosition=bottom;verticalAlign=top;align=center;html=1;fontSize=12;fontStyle=0;aspect=fixed;shape=mxgraph.aws4.resourceIcon;resIcon=mxgraph.aws4.sqs;" vertex="1" parent="1">
          <mxGeometry x="480" y="250.5" width="78" height="78" as="geometry" />
        </mxCell>
        <mxCell id="Hp5vJt8NfIsiyrUl7PVB-31" value="" style="sketch=0;points=[[0,0,0],[0.25,0,0],[0.5,0,0],[0.75,0,0],[1,0,0],[0,1,0],[0.25,1,0],[0.5,1,0],[0.75,1,0],[1,1,0],[0,0.25,0],[0,0.5,0],[0,0.75,0],[1,0.25,0],[1,0.5,0],[1,0.75,0]];outlineConnect=0;fontColor=#232F3E;fillColor=#8C4FFF;strokeColor=#ffffff;dashed=0;verticalLabelPosition=bottom;verticalAlign=top;align=center;html=1;fontSize=12;fontStyle=0;aspect=fixed;shape=mxgraph.aws4.resourceIcon;resIcon=mxgraph.aws4.kinesis;" vertex="1" parent="1">
          <mxGeometry x="290" y="390" width="78" height="78" as="geometry" />
        </mxCell>
        <mxCell id="Hp5vJt8NfIsiyrUl7PVB-32" value="" style="sketch=0;points=[[0,0,0],[0.25,0,0],[0.5,0,0],[0.75,0,0],[1,0,0],[0,1,0],[0.25,1,0],[0.5,1,0],[0.75,1,0],[1,1,0],[0,0.25,0],[0,0.5,0],[0,0.75,0],[1,0.25,0],[1,0.5,0],[1,0.75,0]];outlineConnect=0;fontColor=#232F3E;fillColor=#8C4FFF;strokeColor=#ffffff;dashed=0;verticalLabelPosition=bottom;verticalAlign=top;align=center;html=1;fontSize=12;fontStyle=0;aspect=fixed;shape=mxgraph.aws4.resourceIcon;resIcon=mxgraph.aws4.kinesis_data_analytics;" vertex="1" parent="1">
          <mxGeometry x="390" y="390" width="78" height="78" as="geometry" />
        </mxCell>
        <mxCell id="Hp5vJt8NfIsiyrUl7PVB-34" value="" style="sketch=0;points=[[0,0,0],[0.25,0,0],[0.5,0,0],[0.75,0,0],[1,0,0],[0,1,0],[0.25,1,0],[0.5,1,0],[0.75,1,0],[1,1,0],[0,0.25,0],[0,0.5,0],[0,0.75,0],[1,0.25,0],[1,0.5,0],[1,0.75,0]];outlineConnect=0;fontColor=#232F3E;fillColor=#E7157B;strokeColor=#ffffff;dashed=0;verticalLabelPosition=bottom;verticalAlign=top;align=center;html=1;fontSize=12;fontStyle=0;aspect=fixed;shape=mxgraph.aws4.resourceIcon;resIcon=mxgraph.aws4.eventbridge;" vertex="1" parent="1">
          <mxGeometry x="1820" y="257.5" width="78" height="78" as="geometry" />
        </mxCell>
        <mxCell id="Hp5vJt8NfIsiyrUl7PVB-36" value="" style="sketch=0;points=[[0,0,0],[0.25,0,0],[0.5,0,0],[0.75,0,0],[1,0,0],[0,1,0],[0.25,1,0],[0.5,1,0],[0.75,1,0],[1,1,0],[0,0.25,0],[0,0.5,0],[0,0.75,0],[1,0.25,0],[1,0.5,0],[1,0.75,0]];outlineConnect=0;fontColor=#232F3E;fillColor=#DD344C;strokeColor=#ffffff;dashed=0;verticalLabelPosition=bottom;verticalAlign=top;align=center;html=1;fontSize=12;fontStyle=0;aspect=fixed;shape=mxgraph.aws4.resourceIcon;resIcon=mxgraph.aws4.pinpoint;" vertex="1" parent="1">
          <mxGeometry x="1275" y="257.5" width="78" height="78" as="geometry" />
        </mxCell>
        <mxCell id="Hp5vJt8NfIsiyrUl7PVB-37" style="edgeStyle=orthogonalEdgeStyle;rounded=0;orthogonalLoop=1;jettySize=auto;html=1;exitX=1;exitY=0.5;exitDx=0;exitDy=0;exitPerimeter=0;entryX=0.5;entryY=0.5;entryDx=0;entryDy=0;entryPerimeter=0;" edge="1" parent="1" source="Hp5vJt8NfIsiyrUl7PVB-36" target="Hp5vJt8NfIsiyrUl7PVB-15">
          <mxGeometry relative="1" as="geometry" />
        </mxCell>
      </root>
    </mxGraphModel>
  </diagram>
</mxfile>
